<svg version="1.0" xmlns="http://www.w3.org/2000/svg"
 width="200.000000pt" height="300.000000pt" viewBox="0 0 200.000000 300.000000"
 preserveAspectRatio="xMidYMid meet">
<g transform="translate(0.000000,300.000000) scale(0.100000,-0.100000)"
fill="#FFFFFF" stroke="none">
<path d="M369 2605 c26 -29 30 -42 26 -73 -2 -20 -7 -62 -10 -92 -13 -122 -64
-210 -122 -210 -45 0 -53 -10 -38 -45 11 -24 14 -26 14 -9 1 14 15 26 49 41
26 12 57 30 70 41 14 12 30 18 40 15 15 -6 15 -4 4 10 -15 17 -8 77 8 77 5 0
7 9 5 20 -2 11 0 22 6 25 5 4 5 14 -1 26 -16 29 -9 99 9 99 8 0 41 -9 74 -21
32 -11 87 -29 123 -39 63 -18 64 -18 64 1 0 16 3 18 19 10 10 -6 21 -7 25 -4
3 4 17 7 31 8 20 0 25 -4 25 -25 1 -23 2 -24 14 -7 13 16 27 18 142 13 71 -2
140 -7 154 -9 100 -20 132 -28 171 -43 24 -10 50 -24 57 -31 7 -7 19 -13 25
-13 10 0 70 -55 117 -108 30 -33 91 -142 89 -160 -1 -9 -1 -23 0 -31 1 -15
108 -121 122 -121 5 0 9 -5 9 -10 0 -7 -7 -7 -21 1 -21 11 -21 10 -5 -12 9
-13 22 -24 29 -24 20 0 14 -21 -15 -54 -15 -16 -30 -42 -34 -56 -3 -14 -10
-28 -15 -31 -5 -3 -7 -10 -3 -15 3 -5 0 -16 -6 -24 -6 -8 -9 -19 -5 -25 3 -5
2 -10 -4 -10 -6 0 -8 -7 -5 -15 4 -8 -1 -17 -10 -21 -9 -3 -13 -10 -10 -15 3
-6 -1 -20 -9 -33 -12 -17 -13 -26 -4 -35 8 -8 7 -11 -7 -11 -10 0 -14 -5 -11
-11 4 -6 -2 -17 -14 -25 -12 -8 -21 -21 -21 -28 0 -12 -41 -56 -52 -56 -3 0
-6 10 -7 23 -3 124 -7 144 -29 172 -21 26 -23 36 -17 80 4 27 7 61 7 75 0 40
-21 125 -32 128 -6 2 -10 9 -10 16 0 34 -78 59 -208 67 -18 1 -35 6 -38 11 -3
5 -11 5 -17 0 -7 -5 -37 -9 -67 -8 -30 1 -69 -4 -86 -10 -23 -9 -35 -9 -43 -1
-7 7 -12 6 -17 -6 -5 -13 -15 -15 -52 -10 -26 3 -55 6 -64 7 -10 0 -18 3 -18
7 0 8 -108 21 -170 21 -25 0 -58 -5 -75 -12 -16 -6 -31 -11 -32 -11 -18 5 -43
-2 -43 -12 0 -7 -11 -23 -25 -35 -14 -12 -25 -26 -25 -32 0 -5 -7 -10 -15 -10
-8 0 -15 5 -15 10 0 6 -6 9 -12 8 -7 -2 -13 5 -13 14 0 9 -11 27 -24 39 -43
40 -141 209 -141 243 0 15 -28 42 -35 34 -16 -16 128 -296 187 -363 l38 -43
-20 -66 c-19 -62 -20 -69 -5 -128 8 -35 20 -89 26 -121 13 -70 34 -67 24 4 -7
47 -6 49 17 49 12 0 50 -12 83 -26 33 -14 83 -30 110 -34 28 -5 58 -11 68 -15
16 -7 18 -3 15 30 -3 36 -5 38 -55 51 -28 7 -89 28 -134 45 -75 29 -83 30 -94
15 -7 -9 -15 -16 -19 -16 -19 0 18 221 48 278 19 38 103 72 176 72 54 0 160
-22 220 -46 35 -14 41 -14 64 1 14 9 43 21 63 26 76 19 372 4 395 -19 6 -6 21
-48 32 -94 18 -70 20 -87 9 -108 -19 -38 -15 -75 12 -108 23 -28 24 -36 27
-190 2 -89 4 -162 6 -162 9 0 42 69 42 88 0 43 97 162 132 162 7 0 4 6 -5 13
-15 11 -13 18 14 80 16 38 29 75 29 83 0 7 9 37 20 67 16 42 28 58 60 76 22
12 40 26 40 30 0 9 -26 37 -72 77 -20 18 -41 41 -48 53 -6 12 -21 26 -34 31
-17 6 -23 17 -24 44 -2 46 -61 170 -107 223 -41 49 -160 130 -218 150 -71 25
-198 41 -367 47 -91 3 -185 9 -210 12 -32 4 -41 3 -30 -5 37 -26 -10 -22 -100
8 -90 29 -187 85 -198 113 -2 4 -8 8 -14 8 -5 0 4 -16 21 -35z"/>
<path d="M525 2328 c26 -24 54 -47 61 -51 8 -4 14 -17 14 -28 0 -11 5 -17 10
-14 6 3 10 12 10 20 0 15 -68 83 -103 102 -42 24 -40 13 8 -29z"/>
<path d="M1175 1623 c-33 -7 -111 -25 -172 -39 l-113 -26 0 -32 0 -33 48 4
c26 3 108 20 183 40 132 34 138 34 169 18 51 -26 58 -4 15 44 -41 45 -42 45
-130 24z"/>
<path d="M1592 1484 c-24 -16 -57 -72 -48 -81 3 -3 10 5 15 19 11 30 35 42 49
25 22 -26 47 -157 30 -157 -4 0 -5 -7 -2 -15 4 -8 1 -15 -5 -15 -6 0 -11 -6
-11 -14 0 -8 -11 -24 -25 -37 -13 -13 -25 -28 -25 -32 0 -5 -13 -21 -29 -37
-20 -20 -35 -27 -52 -24 -13 2 -18 2 -11 -2 25 -12 11 -23 -25 -21 -41 2 -45
-5 -58 -105 -3 -26 -12 -54 -20 -62 -8 -7 -11 -16 -8 -20 9 -9 53 72 53 98 0
45 12 66 37 66 49 0 125 71 180 168 33 57 44 122 21 122 -9 0 -9 3 -1 11 8 8
7 24 -2 59 -20 76 -25 81 -63 54z"/>
<path d="M463 1475 c-22 -9 -33 -21 -33 -35 0 -28 33 -26 64 5 29 29 52 34 37
8 -16 -29 5 -53 45 -53 28 0 37 5 41 20 7 26 28 20 27 -7 0 -15 5 -19 18 -15
42 11 4 64 -59 81 -51 15 -101 13 -140 -4z"/>
<path d="M1040 1474 c-45 -13 -90 -49 -90 -71 0 -22 15 -15 40 19 l24 32 8
-33 c8 -28 13 -32 31 -27 12 3 34 6 50 6 23 0 27 4 27 30 0 35 -2 35 41 13
l33 -17 -27 -9 c-15 -5 -27 -13 -27 -18 0 -11 54 0 58 13 2 4 15 8 28 8 34 0
30 16 -8 36 -46 24 -138 33 -188 18z m40 -24 c0 -5 -4 -10 -10 -10 -5 0 -10
-8 -10 -17 0 -13 -3 -14 -11 -6 -7 7 -9 19 -6 27 7 17 37 22 37 6z"/>
<path d="M893 1445 c-10 -29 13 -39 41 -19 33 25 32 29 -4 32 -20 2 -33 -3
-37 -13z"/>
<path d="M1525 1361 c-3 -12 -4 -35 0 -51 5 -23 3 -30 -8 -30 -8 0 -17 -10
-21 -22 -8 -31 -7 -43 2 -34 4 4 7 13 7 19 0 7 10 13 23 15 27 4 40 28 23 45
-16 16 -14 35 5 39 14 3 13 6 -4 21 -20 18 -20 18 -27 -2z"/>
<path d="M355 1228 c4 -13 20 -56 36 -97 16 -40 29 -80 29 -87 0 -8 4 -14 10
-14 6 0 6 9 0 26 -6 14 -8 30 -4 35 3 5 0 9 -5 9 -6 0 -11 5 -11 10 0 6 -9 30
-20 52 -11 23 -20 52 -20 65 0 13 -5 23 -11 23 -6 0 -8 -9 -4 -22z"/>
<path d="M915 1158 c-8 -42 -27 -63 -50 -54 -9 3 -40 -3 -70 -13 l-53 -19 -42
24 c-24 14 -44 23 -46 21 -14 -14 68 -77 99 -77 6 0 18 -7 26 -14 20 -18 44
-6 35 17 -3 9 -10 17 -15 17 -5 0 -9 4 -9 8 0 4 18 8 40 9 22 1 40 -2 40 -8 0
-5 9 -9 19 -9 27 0 56 76 43 110 -9 24 -10 24 -17 -12z"/>
<path d="M1018 949 c-30 -15 -63 -20 -165 -23 -71 -2 -162 0 -203 4 -41 4 -77
6 -79 4 -2 -2 1 -10 8 -18 28 -34 391 -27 461 9 16 8 30 22 30 30 0 19 -7 18
-52 -6z"/>
<path d="M867 844 c-3 -3 -27 -7 -54 -9 -26 -2 -57 -4 -68 -4 -19 -2 -19 -2
-2 -12 12 -7 37 -8 70 -3 29 5 58 8 65 7 6 0 12 3 12 8 0 11 -16 20 -23 13z"/>
<path d="M491 830 c0 -8 18 -42 39 -75 94 -145 90 -136 77 -183 -10 -37 -9
-46 3 -55 30 -24 119 -134 152 -189 28 -46 37 -55 51 -47 11 7 17 6 17 -1 0
-5 -5 -10 -11 -10 -7 0 -8 -7 -4 -17 4 -10 6 -69 6 -130 -2 -96 0 -113 13
-113 14 0 16 21 15 155 0 209 15 238 162 306 162 74 434 216 443 232 9 15 6
23 -17 43 -37 31 -47 30 -47 -4 0 -27 -28 -72 -44 -72 -4 0 -62 -30 -129 -66
-67 -37 -156 -85 -197 -107 -148 -80 -190 -117 -190 -169 0 -37 -25 -37 -38 0
-5 16 -40 66 -77 112 -55 67 -69 90 -71 122 -1 22 -12 61 -25 86 -21 46 -76
131 -92 143 -4 3 -5 14 -1 25 4 14 3 15 -4 5 -8 -11 -12 -10 -21 5 -7 14 -10
15 -10 4z"/>
<path d="M1240 764 c-25 -19 -58 -42 -74 -50 -16 -9 -38 -25 -49 -35 -12 -10
-26 -19 -33 -19 -7 0 -17 -6 -21 -14 -4 -7 -23 -21 -42 -31 -19 -9 -39 -21
-45 -26 -6 -6 -19 -16 -30 -23 -10 -7 -17 -18 -15 -25 3 -8 11 -6 25 7 11 11
30 23 42 26 12 4 22 12 22 17 0 5 4 9 10 9 10 0 92 54 122 81 10 9 31 22 46
30 27 14 108 90 94 88 -4 0 -27 -16 -52 -35z"/>
<path d="M1430 650 c-14 -11 -30 -23 -35 -27 -6 -5 -51 -28 -102 -53 -99 -49
-114 -78 -17 -34 32 15 61 30 64 34 10 12 83 51 87 46 3 -3 11 -42 18 -88 8
-46 20 -110 29 -143 14 -55 14 -61 -1 -72 -22 -17 -14 -22 20 -16 32 6 33 17
7 103 -10 36 -24 111 -31 168 -6 56 -12 102 -13 102 0 -1 -12 -10 -26 -20z"/>
<path d="M665 559 c18 -31 49 -59 67 -59 10 0 18 -6 18 -12 0 -10 2 -10 8 0 5
7 16 10 25 6 11 -4 17 -1 17 7 0 10 3 10 8 3 10 -15 55 2 49 18 -2 7 -11 11
-18 9 -40 -11 -110 -2 -145 20 -23 14 -34 17 -29 8z"/>
<path d="M883 543 c-14 -5 -18 -33 -5 -33 14 1 42 27 35 33 -7 8 -12 8 -30 0z"/>
<path d="M600 364 c0 -97 -4 -145 -12 -157 -12 -15 -68 -44 -288 -150 -79 -38
-93 -42 -195 -47 l-110 -7 95 0 c132 -1 379 13 310 17 -30 2 -63 2 -73 2 -11
-1 -15 2 -11 9 3 6 17 8 29 5 14 -3 27 -1 31 6 4 7 3 8 -4 4 -8 -5 -10 -2 -6
8 3 9 14 16 23 16 9 0 36 12 60 26 25 13 50 23 57 20 7 -3 16 4 19 15 8 24 32
25 58 1 19 -17 20 -16 13 11 -5 20 -1 36 15 58 18 26 21 43 20 125 l-1 95 24
-18 c13 -10 21 -22 18 -27 -3 -5 0 -6 6 -2 8 5 12 0 12 -14 0 -11 7 -23 15
-27 22 -8 47 -61 40 -83 -4 -11 -2 -20 3 -20 16 0 30 -106 21 -153 -4 -23 -8
-46 -9 -50 0 -5 -16 1 -36 12 -41 25 -46 24 -37 -7 5 -19 12 -22 56 -22 l50 0
-6 88 c-2 48 -10 101 -17 117 -7 17 -14 41 -15 55 -4 38 -26 77 -90 155 -32
39 -59 72 -61 74 -2 2 -4 -59 -4 -135z"/>
<path d="M907 374 c-16 -21 -20 -52 -24 -195 l-6 -169 327 0 c297 0 350 4 317
24 -4 3 -11 3 -15 -1 -9 -9 -168 -10 -187 -1 -9 4 -19 5 -23 1 -9 -9 -206 -11
-211 -2 -3 4 -17 6 -30 3 -14 -2 -25 0 -25 5 0 5 -25 3 -57 -4 -32 -7 -60 -11
-62 -9 -3 3 -5 77 -6 165 -1 142 1 161 17 176 10 9 18 20 18 25 0 15 -15 7
-33 -18z"/>
<path d="M1522 264 c2 -12 16 -21 43 -26 27 -6 44 -16 51 -31 5 -12 15 -21 22
-19 7 1 12 -3 12 -9 0 -10 52 -69 98 -112 24 -23 31 -47 7 -27 -13 11 -14 10
-10 -2 5 -12 -7 -14 -67 -14 -40 1 -78 4 -83 8 -6 3 -19 0 -30 -8 -16 -12 1
-14 139 -14 l158 0 -34 27 c-60 49 -177 168 -181 184 -6 24 -48 49 -92 56 -32
5 -37 4 -33 -13z"/>
<path d="M500 32 c0 -6 -10 -13 -22 -15 -13 -2 28 -5 90 -6 61 0 112 2 112 7
0 4 -35 6 -77 6 -43 -1 -84 3 -90 8 -9 7 -13 7 -13 0z"/>
</g>
</svg>
